<?xml version="1.0" encoding="UTF-8" standalone="no"?><svg xmlns="http://www.w3.org/2000/svg" xmlns:xlink="http://www.w3.org/1999/xlink" contentStyleType="text/css" height="416px" preserveAspectRatio="none" style="width:314px;height:416px;background:#FFFFFF;" version="1.1" viewBox="0 0 314 416" width="314px" zoomAndPan="magnify"><defs/><g><!--MD5=[fc1863079907faae5f551efa4424906d]
cluster RemoteServer--><g id="cluster_RemoteServer"><path d="M34.958,129.9649 C39.4763,123.0633 45.5013,121.9405 50.1809,129.7985 C53.9971,119.3281 62.1667,118.582 68.5752,127.3154 C74.3097,119.8362 80.1095,119.7533 85.4065,127.79 C91.8741,119.5142 99.4124,119.6393 105.0077,128.7723 C109.2956,119.5359 117.2721,119.9733 123.1588,126.9863 C128.445,119.1907 133.7899,119.2242 139.5926,126.4201 C144.1069,119.5077 152.322,116.9644 156.8568,126.3985 C162.7926,117.8023 169.874,119.9668 174.601,127.7112 C180.1487,117.3112 185.998,117.4082 193.0107,126.3143 C199.0393,119.8545 204.5581,120.1159 209.1224,127.9632 C214.7348,120.5481 220.6078,120.2561 226.6031,127.5068 C232.1421,117.8524 237.4641,118.4718 243.7987,126.7436 C249.2863,119.666 255.9379,118.836 260.9489,127.2706 C270.3682,117.3129 282.3119,121.2241 285.5,134 C286.0146,134.0657 286.0596,134.4923 285.7638,134.8191 C296.8565,138.8465 297.5929,145.486 289.2609,153.2075 C297.9944,156.4323 297.7985,164.6031 290.8704,169.3859 C300.7866,174.5622 301.9652,180.9948 292.6032,187.9687 C301.529,192.3094 303.8357,200.5916 294.5608,206.8221 C303.9985,212.107 303.9508,217.8477 295.7408,224.3225 C306.6818,229.1874 305.365,235.9914 298.0546,243.1047 C307.0985,247.1678 306.5821,255.1152 299.3718,260.4152 C305.4636,266.2796 305.0306,272.0082 296.6243,275.1735 C306.9159,279.8449 306.5369,288.6182 297.0983,293.7919 C304.5233,299.5418 305.1807,308.0101 295.5807,312.3692 C302.507,319.0126 300.8513,326.5092 292.6288,330.715 C300.2518,336.4554 301.0313,343.8903 292.0319,349.0908 C297.9928,355.291 298.746,361.8869 289.2269,365.4294 C296.5361,376.1408 293.1386,387.7195 278.5,388 C280.9392,387.6667 281.5011,389.0364 281.0704,391.0902 C275.4884,400.8233 269.4256,399.143 262.8277,392.2016 C259.101,402.2424 250.9472,402.1016 245.2509,394.1228 C239.3269,401.8154 234.1575,401.94 228.2354,394.1207 C222.2174,402.9865 216.3366,405.6083 208.2719,396.3788 C204.3745,405.4391 196.3778,405.2603 190.6341,398.4278 C185.4076,405.04 179.7769,407.1836 174.5741,398.4031 C168.9678,406.9868 163.6634,407.6717 156.9222,399.6064 C150.0472,408.4139 143.5725,409.0922 137.9457,398.3922 C131.478,407.6784 125.2589,405.5308 120.0405,397.1277 C113.636,402.476 108.9116,401.6192 105.0393,394.1615 C99.2644,403.2052 92.9176,404.8506 86.3373,394.957 C79.5584,402.5719 72.4826,401.0387 67.8586,392.493 C62.3059,399.9116 56.8534,399.6482 51.4172,392.3627 C39.6301,401.1431 25.3175,398.2057 24.5,381 C26.4585,381.1612 27.4293,382.5225 26.4864,384.3859 C17.6035,379.2985 17.9343,370.5024 27.4758,366.4302 C15.9514,362.0618 15.109,354.5943 24.1104,346.721 C15.9301,341.1898 16.7977,332.8311 25.3001,328.3823 C17.4052,324.0235 17.3648,317.6219 24.7657,312.7406 C17.1924,306.9115 15.1324,300.9147 24.5489,294.8794 C14.9548,289.1922 14.078,283.191 23.4071,276.3384 C14.0486,270.4653 15.8023,264.0468 24.0847,258.8576 C16.4214,253.2649 17.2008,244.674 25.9481,240.7722 C18.5507,234.7102 18.4334,227.7636 26.5739,222.2259 C18.0791,216.7646 18.3881,211.3109 25.2077,204.6586 C19.3999,198.7646 19.5711,193.1994 27.2095,189.0273 C17.5605,185.0372 17.229,179.4053 24.1161,172.3482 C15.8726,165.0378 16.9486,159.3114 25.5798,153.2975 C15.2642,142.8029 17.4511,132.0096 31.5,127 C33.7251,126.4828 35.3772,127.398 34.958,129.9649 " fill="#ADD8E6" style="stroke:#181818;stroke-width:1.0;"/><text fill="#000000" font-family="sans-serif" font-size="14" font-weight="bold" lengthAdjust="spacing" textLength="99" x="105.5" y="146.5332">Remote Server</text></g><!--MD5=[d64883541e3d62e3241c4d12decf100d]
cluster Application--><g id="cluster_Application"><path d="M43,163 L123,163 A3.75,3.75 0 0 1 125.5,165.5 L132.5,186.6094 L267,186.6094 A2.5,2.5 0 0 1 269.5,189.1094 L269.5,369.5 A2.5,2.5 0 0 1 267,372 L43,372 A2.5,2.5 0 0 1 40.5,369.5 L40.5,165.5 A2.5,2.5 0 0 1 43,163 " fill="#FFFFFF" style="stroke:#000000;stroke-width:1.5;"/><line style="stroke:#000000;stroke-width:1.5;" x1="40.5" x2="132.5" y1="186.6094" y2="186.6094"/><text fill="#000000" font-family="sans-serif" font-size="14" font-weight="bold" lengthAdjust="spacing" textLength="79" x="44.5" y="179.5332">Application</text></g><!--MD5=[5151972157682f9decd04efba8c789b7]
entity ApiService--><g id="elem_ApiService"><rect fill="#EEE8AA" height="47.6094" rx="2.5" ry="2.5" style="stroke:#181818;stroke-width:0.5;" width="144" x="109.5" y="199"/><rect fill="#EEE8AA" height="10" style="stroke:#181818;stroke-width:0.5;" width="15" x="233.5" y="204"/><rect fill="#EEE8AA" height="2" style="stroke:#181818;stroke-width:0.5;" width="4" x="231.5" y="206"/><rect fill="#EEE8AA" height="2" style="stroke:#181818;stroke-width:0.5;" width="4" x="231.5" y="210"/><text fill="#000000" font-family="sans-serif" font-size="14" lengthAdjust="spacing" textLength="104" x="124.5" y="233.5332">Rest Api Service</text></g><!--MD5=[46d30a4f4884a64aef3690cad749b040]
entity ApiServiceInterface--><g id="elem_ApiServiceInterface"><ellipse cx="65.5" cy="223" fill="#F1F1F1" rx="8" ry="8" style="stroke:#181818;stroke-width:0.5;"/><text fill="#000000" font-family="sans-serif" font-size="14" lengthAdjust="spacing" textLength="37" x="47" y="254.5332">HTTP</text></g><!--MD5=[112ac2a0f8fda4b2eca8a724b72fff30]
entity ApiModel--><g id="elem_ApiModel"><rect fill="#EEE8AA" height="47.6094" rx="2.5" ry="2.5" style="stroke:#181818;stroke-width:0.5;" width="136" x="113.5" y="308"/><rect fill="#EEE8AA" height="10" style="stroke:#181818;stroke-width:0.5;" width="15" x="229.5" y="313"/><rect fill="#EEE8AA" height="2" style="stroke:#181818;stroke-width:0.5;" width="4" x="227.5" y="315"/><rect fill="#EEE8AA" height="2" style="stroke:#181818;stroke-width:0.5;" width="4" x="227.5" y="319"/><text fill="#000000" font-family="sans-serif" font-size="14" lengthAdjust="spacing" textLength="96" x="128.5" y="342.5332">Rest Api Model</text></g><!--MD5=[0ba5ee7700168656dc1b457c6fe9fdac]
entity Client--><g id="elem_Client"><rect fill="#EEE8AA" height="47.6094" rx="2.5" ry="2.5" style="stroke:#181818;stroke-width:0.5;" width="117" x="7" y="7"/><rect fill="#EEE8AA" height="10" style="stroke:#181818;stroke-width:0.5;" width="15" x="104" y="12"/><rect fill="#EEE8AA" height="2" style="stroke:#181818;stroke-width:0.5;" width="4" x="102" y="14"/><rect fill="#EEE8AA" height="2" style="stroke:#181818;stroke-width:0.5;" width="4" x="102" y="18"/><text fill="#000000" font-family="sans-serif" font-size="14" lengthAdjust="spacing" textLength="77" x="22" y="41.5332">Client HTTP</text></g><!--MD5=[5afdbba86db38ddc1bef881e39ef3d06]
link ApiServiceInterface to ApiService--><g id="link_ApiServiceInterface_ApiService"><path d="M74.56,223 C86.12,223 97.68,223 109.23,223 " fill="none" id="ApiServiceInterface-ApiService" style="stroke:#181818;stroke-width:1.0;"/></g><!--MD5=[19f6b13325f6b63a53580c1de9884c4d]
reverse link ApiService to ApiModel--><g id="link_ApiService_ApiModel"><path d="M181.5,260.3 C181.5,276.02 181.5,293.96 181.5,307.83 " fill="none" id="ApiService-backto-ApiModel" style="stroke:#181818;stroke-width:1.0;"/><polygon fill="#181818" points="181.5,247.22,177.5,253.22,181.5,259.22,185.5,253.22,181.5,247.22" style="stroke:#181818;stroke-width:1.0;"/></g><!--MD5=[23fe50c5e13d327d2f4eacc1a5ba811d]
link Client to ApiServiceInterface--><g id="link_Client_ApiServiceInterface"><path d="M65.5,55.3 C65.5,95.58 65.5,176.97 65.5,208.81 " fill="none" id="Client-to-ApiServiceInterface" style="stroke:#181818;stroke-width:1.0;stroke-dasharray:7.0,7.0;"/><polygon fill="#181818" points="65.5,213.82,69.5,204.82,65.5,208.82,61.5,204.82,65.5,213.82" style="stroke:#181818;stroke-width:1.0;"/><text fill="#000000" font-family="sans-serif" font-size="13" lengthAdjust="spacing" textLength="21" x="66.5" y="99.4951">use</text></g><!--MD5=[3c9dd1e1111ac193ffa90b0bb279028a]
@startuml Components

' Create the component + interface for REST API
cloud "Remote Server" as RemoteServer {
    package Application {
        [Rest Api Service] as ApiService
        interface HTTP as ApiServiceInterface
        ApiServiceInterface - ApiService

        [Rest Api Model] as ApiModel
        ApiService *- - ApiModel 
    }
}

' Create the component for HTTP client
[Client HTTP] as Client
Client ..> ApiServiceInterface: use 


skinparam component {
    backgroundColor PaleGoldenRod
}
skinparam package {
    backgroundColor white
}
skinparam cloud {
    backgroundColor lightblue
}
@enduml

@startuml Components

cloud "Remote Server" as RemoteServer {
    package Application {
        [Rest Api Service] as ApiService
        interface HTTP as ApiServiceInterface
        ApiServiceInterface - ApiService

        [Rest Api Model] as ApiModel
        ApiService *- - ApiModel 
    }
}

[Client HTTP] as Client
Client ..> ApiServiceInterface: use 


skinparam component {
    backgroundColor PaleGoldenRod
}
skinparam package {
    backgroundColor white
}
skinparam cloud {
    backgroundColor lightblue
}
@enduml

PlantUML version 1.2022.7(Mon Aug 22 19:01:30 CEST 2022)
(GPL source distribution)
Java Runtime: OpenJDK Runtime Environment
JVM: OpenJDK 64-Bit Server VM
Default Encoding: Cp1252
Language: en
Country: GB
--></g></svg>