<?xml version="1.0" encoding="UTF-8" standalone="no"?><svg xmlns="http://www.w3.org/2000/svg" xmlns:xlink="http://www.w3.org/1999/xlink" contentStyleType="text/css" height="230px" preserveAspectRatio="none" style="width:108px;height:230px;background:#FFFFFF;" version="1.1" viewBox="0 0 108 230" width="108px" zoomAndPan="magnify"><defs/><g><!--MD5=[9f93fc4de6aba39e63ecc8b5110a2944]
class University--><g id="elem_University"><rect codeLine="3" fill="#ADD8E6" height="32" id="University" rx="2.5" ry="2.5" style="stroke:#181818;stroke-width:0.5;" width="94" x="7" y="7"/><ellipse cx="22" cy="23" fill="#ADD1B2" rx="11" ry="11" style="stroke:#181818;stroke-width:1.0;"/><path d="M24.7656,18.875 Q24.9219,18.6563 25.1094,18.5469 Q25.2969,18.4375 25.5156,18.4375 Q25.8906,18.4375 26.125,18.7031 Q26.3594,18.9531 26.3594,19.5625 L26.3594,21.0156 Q26.3594,21.625 26.125,21.8906 Q25.8906,22.1563 25.5156,22.1563 Q25.1719,22.1563 24.9688,21.9531 Q24.7656,21.7656 24.6563,21.25 Q24.6094,20.8906 24.4219,20.7031 Q24.0938,20.3281 23.4844,20.1094 Q22.875,19.8906 22.25,19.8906 Q21.4844,19.8906 20.8438,20.2188 Q20.2188,20.5469 19.7188,21.2969 Q19.2344,22.0469 19.2344,23.0781 L19.2344,24.1719 Q19.2344,25.4063 20.125,26.2344 Q21.0156,27.0469 22.6094,27.0469 Q23.5469,27.0469 24.2031,26.7969 Q24.5938,26.6406 25.0156,26.2031 Q25.2813,25.9375 25.4219,25.8594 Q25.5781,25.7813 25.7813,25.7813 Q26.1094,25.7813 26.3594,26.0469 Q26.625,26.2969 26.625,26.6406 Q26.625,26.9844 26.2813,27.3906 Q25.7813,27.9688 24.9844,28.2969 Q23.9063,28.75 22.6094,28.75 Q21.0938,28.75 19.8906,28.125 Q18.9063,27.625 18.2188,26.5625 Q17.5313,25.4844 17.5313,24.2031 L17.5313,23.0469 Q17.5313,21.7188 18.1406,20.5781 Q18.7656,19.4219 19.8594,18.8125 Q20.9531,18.1875 22.1875,18.1875 Q22.9219,18.1875 23.5625,18.3594 Q24.2188,18.5156 24.7656,18.875 Z " fill="#000000"/><text fill="#000000" font-family="sans-serif" font-size="14" lengthAdjust="spacing" textLength="62" x="36" y="28.7285">University</text></g><!--MD5=[4066b0363c5a91ff3b6e03e0428953a9]
class Course--><g id="elem_Course"><rect codeLine="4" fill="#ADD8E6" height="32" id="Course" rx="2.5" ry="2.5" style="stroke:#181818;stroke-width:0.5;" width="78" x="15" y="99"/><ellipse cx="30" cy="115" fill="#ADD1B2" rx="11" ry="11" style="stroke:#181818;stroke-width:1.0;"/><path d="M32.7656,110.875 Q32.9219,110.6563 33.1094,110.5469 Q33.2969,110.4375 33.5156,110.4375 Q33.8906,110.4375 34.125,110.7031 Q34.3594,110.9531 34.3594,111.5625 L34.3594,113.0156 Q34.3594,113.625 34.125,113.8906 Q33.8906,114.1563 33.5156,114.1563 Q33.1719,114.1563 32.9688,113.9531 Q32.7656,113.7656 32.6563,113.25 Q32.6094,112.8906 32.4219,112.7031 Q32.0938,112.3281 31.4844,112.1094 Q30.875,111.8906 30.25,111.8906 Q29.4844,111.8906 28.8438,112.2188 Q28.2188,112.5469 27.7188,113.2969 Q27.2344,114.0469 27.2344,115.0781 L27.2344,116.1719 Q27.2344,117.4063 28.125,118.2344 Q29.0156,119.0469 30.6094,119.0469 Q31.5469,119.0469 32.2031,118.7969 Q32.5938,118.6406 33.0156,118.2031 Q33.2813,117.9375 33.4219,117.8594 Q33.5781,117.7813 33.7813,117.7813 Q34.1094,117.7813 34.3594,118.0469 Q34.625,118.2969 34.625,118.6406 Q34.625,118.9844 34.2813,119.3906 Q33.7813,119.9688 32.9844,120.2969 Q31.9063,120.75 30.6094,120.75 Q29.0938,120.75 27.8906,120.125 Q26.9063,119.625 26.2188,118.5625 Q25.5313,117.4844 25.5313,116.2031 L25.5313,115.0469 Q25.5313,113.7188 26.1406,112.5781 Q26.7656,111.4219 27.8594,110.8125 Q28.9531,110.1875 30.1875,110.1875 Q30.9219,110.1875 31.5625,110.3594 Q32.2188,110.5156 32.7656,110.875 Z " fill="#000000"/><text fill="#000000" font-family="sans-serif" font-size="14" lengthAdjust="spacing" textLength="46" x="44" y="120.7285">Course</text></g><!--MD5=[09ce52be0ee7de43c61b6e2d59bf108b]
class Person--><g id="elem_Person"><rect codeLine="5" fill="#ADD8E6" height="32" id="Person" rx="2.5" ry="2.5" style="stroke:#181818;stroke-width:0.5;" width="77" x="15.5" y="191"/><ellipse cx="30.5" cy="207" fill="#ADD1B2" rx="11" ry="11" style="stroke:#181818;stroke-width:1.0;"/><path d="M33.2656,202.875 Q33.4219,202.6563 33.6094,202.5469 Q33.7969,202.4375 34.0156,202.4375 Q34.3906,202.4375 34.625,202.7031 Q34.8594,202.9531 34.8594,203.5625 L34.8594,205.0156 Q34.8594,205.625 34.625,205.8906 Q34.3906,206.1563 34.0156,206.1563 Q33.6719,206.1563 33.4688,205.9531 Q33.2656,205.7656 33.1563,205.25 Q33.1094,204.8906 32.9219,204.7031 Q32.5938,204.3281 31.9844,204.1094 Q31.375,203.8906 30.75,203.8906 Q29.9844,203.8906 29.3438,204.2188 Q28.7188,204.5469 28.2188,205.2969 Q27.7344,206.0469 27.7344,207.0781 L27.7344,208.1719 Q27.7344,209.4063 28.625,210.2344 Q29.5156,211.0469 31.1094,211.0469 Q32.0469,211.0469 32.7031,210.7969 Q33.0938,210.6406 33.5156,210.2031 Q33.7813,209.9375 33.9219,209.8594 Q34.0781,209.7813 34.2813,209.7813 Q34.6094,209.7813 34.8594,210.0469 Q35.125,210.2969 35.125,210.6406 Q35.125,210.9844 34.7813,211.3906 Q34.2813,211.9688 33.4844,212.2969 Q32.4063,212.75 31.1094,212.75 Q29.5938,212.75 28.3906,212.125 Q27.4063,211.625 26.7188,210.5625 Q26.0313,209.4844 26.0313,208.2031 L26.0313,207.0469 Q26.0313,205.7188 26.6406,204.5781 Q27.2656,203.4219 28.3594,202.8125 Q29.4531,202.1875 30.6875,202.1875 Q31.4219,202.1875 32.0625,202.3594 Q32.7188,202.5156 33.2656,202.875 Z " fill="#000000"/><text fill="#000000" font-family="sans-serif" font-size="14" lengthAdjust="spacing" textLength="45" x="44.5" y="212.7285">Person</text></g><!--MD5=[e080ea5f502004065fa08d07020b8c1b]
reverse link University to Course--><g id="link_University_Course"><path codeLine="7" d="M54,52.34 C54,67.79 54,86.28 54,98.96 " fill="none" id="University-backto-Course" style="stroke:#181818;stroke-width:1.0;"/><polygon fill="#181818" points="54,39.27,50,45.27,54,51.27,58,45.27,54,39.27" style="stroke:#181818;stroke-width:1.0;"/><text fill="#000000" font-family="sans-serif" font-size="13" lengthAdjust="spacing" textLength="7" x="45.8844" y="60.5572">1</text><text fill="#000000" font-family="sans-serif" font-size="13" lengthAdjust="spacing" textLength="20" x="30.5625" y="88.2518">0-N</text></g><!--MD5=[a0e83700a4606df181cba1e29713faf0]
reverse link Course to Person--><g id="link_Course_Person"><path codeLine="8" d="M54,144.34 C54,159.79 54,178.28 54,190.96 " fill="none" id="Course-backto-Person" style="stroke:#181818;stroke-width:1.0;"/><polygon fill="#181818" points="54,131.27,50,137.27,54,143.27,58,137.27,54,131.27" style="stroke:#181818;stroke-width:1.0;"/><text fill="#000000" font-family="sans-serif" font-size="13" lengthAdjust="spacing" textLength="7" x="45.8844" y="152.5572">1</text><text fill="#000000" font-family="sans-serif" font-size="13" lengthAdjust="spacing" textLength="20" x="30.5625" y="180.2518">0-N</text></g><!--MD5=[5aeab850b08f3964975c24553119e6a7]
@startuml Model

hide members
class University
class Course
class Person

University "1" *- - "0-N" Course
Course "1" *- - "0-N" Person


skinparam class {
    BackgroundColor LightBlue
}
@enduml

PlantUML version 1.2022.7(Mon Aug 22 19:01:30 CEST 2022)
(GPL source distribution)
Java Runtime: OpenJDK Runtime Environment
JVM: OpenJDK 64-Bit Server VM
Default Encoding: Cp1252
Language: en
Country: GB
--></g></svg>